<svg width="80.000000" height="83.000000" viewBox="0 0 80 83" fill="none" xmlns="http://www.w3.org/2000/svg" xmlns:xlink="http://www.w3.org/1999/xlink">
	<desc>
			Created with Pixso.
	</desc>
	<defs>
		<clipPath id="clip2403_1196">
			<rect id="icon_gift" width="80.000000" height="82.571434" transform="translate(0.000000 -0.071533)" fill="white" fill-opacity="0"/>
		</clipPath>
	</defs>
	<rect id="icon_gift" width="80.000000" height="82.571434" transform="translate(0.000000 -0.071533)" fill="#FFFFFF" fill-opacity="0"/>
	<g clip-path="url(#clip2403_1196)">
		<path id="Vector" d="M65.65 35.75L14.39 35.75C12.59 35.75 11.12 34.29 11.12 32.49L11.12 22.72C11.12 20.92 12.59 19.46 14.39 19.46L65.65 19.46C67.45 19.46 68.91 20.92 68.91 22.72L68.91 32.49C68.91 34.29 67.45 35.75 65.65 35.75ZM14.39 21.96C13.97 21.96 13.62 22.3 13.62 22.72L13.62 32.49C13.62 32.91 13.97 33.25 14.39 33.25L65.65 33.25C66.07 33.25 66.41 32.91 66.41 32.49L66.41 22.72C66.41 22.3 66.06 21.96 65.65 21.96L14.39 21.96Z" fill="#FFFFFF" fill-opacity="1.000000" fill-rule="nonzero"/>
		<path id="Vector" d="M58.5 69.23L21.53 69.23C18.07 69.23 15.25 66.41 15.25 62.95L15.25 34.5C15.25 33.81 15.81 33.25 16.5 33.25C17.19 33.25 17.75 33.81 17.75 34.5L17.75 62.95C17.75 65.03 19.45 66.73 21.53 66.73L58.5 66.73C60.59 66.73 62.28 65.03 62.28 62.95L62.28 34.5C62.28 33.81 62.84 33.25 63.53 33.25C64.22 33.25 64.78 33.81 64.78 34.5L64.78 62.95C64.78 66.41 61.97 69.23 58.5 69.23Z" fill="#FFFFFF" fill-opacity="1.000000" fill-rule="nonzero"/>
		<path id="Vector" d="M40.02 69.23C39.33 69.23 38.77 68.67 38.77 67.98L38.77 34.5C38.77 33.81 39.33 33.25 40.02 33.25C40.71 33.25 41.27 33.81 41.27 34.5L41.27 67.98C41.27 68.67 40.71 69.23 40.02 69.23Z" fill="#FFFFFF" fill-opacity="1.000000" fill-rule="nonzero"/>
		<path id="Vector" d="M24.42 21.95C20.5 19.83 19.04 14.92 21.16 11.01C23.28 7.1 28.19 5.64 32.1 7.75C38.06 10.98 41.28 20 41.42 20.38L39.06 21.21C39.03 21.12 36.02 12.72 30.91 9.95C28.21 8.49 24.82 9.5 23.36 12.2C21.9 14.9 22.91 18.29 25.61 19.75L24.42 21.95Z" fill="#FFFFFF" fill-opacity="1.000000" fill-rule="nonzero"/>
		<path id="Vector" d="M55.62 21.95L54.43 19.75C55.74 19.04 56.69 17.87 57.12 16.44C57.54 15.02 57.38 13.51 56.67 12.2C55.97 10.89 54.79 9.94 53.37 9.51C51.94 9.09 50.43 9.25 49.13 9.95C44.02 12.72 41.01 21.12 40.98 21.21L38.62 20.38C38.75 20 41.97 10.98 47.94 7.75C49.83 6.73 52.01 6.5 54.08 7.12C56.15 7.73 57.85 9.11 58.87 11.01C59.9 12.91 60.13 15.09 59.51 17.15C58.9 19.22 57.51 20.92 55.62 21.95Z" fill="#FFFFFF" fill-opacity="1.000000" fill-rule="nonzero"/>
		<path id="Vector" d="M63.53 52.49L16.5 52.49C15.81 52.49 15.25 51.93 15.25 51.24C15.25 50.55 15.81 49.99 16.5 49.99L63.53 49.99C64.22 49.99 64.78 50.55 64.78 51.24C64.78 51.93 64.22 52.49 63.53 52.49Z" fill="#FFFFFF" fill-opacity="1.000000" fill-rule="nonzero"/>
	</g>
</svg>
