<svg width="23.000000" height="23.000000" viewBox="0 0 23 23" fill="none" xmlns="http://www.w3.org/2000/svg" xmlns:xlink="http://www.w3.org/1999/xlink">
	<desc>
			Created with Pixso.
	</desc>
	<defs>
		<clipPath id="clip2403_686">
			<rect id="icon_instagram" width="23.000000" height="23.000000" fill="white" fill-opacity="0"/>
		</clipPath>
	</defs>
	<rect id="icon_instagram" width="23.000000" height="23.000000" fill="#FFFFFF" fill-opacity="0"/>
	<g clip-path="url(#clip2403_686)">
		<path id="Vector" d="M11.4775 0.0898438C13.3942 0.0898438 14.959 0.112305 16.1719 0.157227C17.2051 0.202148 18.126 0.381836 18.9346 0.696289C19.7133 0.99585 20.3871 1.42993 20.9561 1.99902C21.525 2.56812 21.9594 3.24194 22.2588 4.02051C22.5732 4.8291 22.7529 5.75 22.7979 6.7832C22.8428 7.99609 22.8652 9.56079 22.8652 11.4775C22.8652 13.3943 22.8428 14.959 22.7979 16.1719C22.7529 17.2051 22.5732 18.126 22.2588 18.9346C21.9594 19.7131 21.525 20.387 20.9561 20.9561C20.3871 21.5251 19.7133 21.9592 18.9346 22.2588C18.126 22.5732 17.2051 22.7529 16.1719 22.7979C14.959 22.8428 13.3942 22.8652 11.4775 22.8652C9.56091 22.8652 7.99609 22.8428 6.7832 22.7979C5.75 22.7529 4.8291 22.5732 4.02051 22.2588C3.24182 21.9592 2.56799 21.5251 1.99902 20.9561C1.43005 20.387 0.995728 19.7131 0.696289 18.9346C0.381836 18.126 0.202148 17.2051 0.157227 16.1719C0.112305 14.959 0.0898438 13.3943 0.0898438 11.4775C0.0898438 9.56079 0.112305 7.99609 0.157227 6.7832C0.202148 5.75 0.381836 4.8291 0.696289 4.02051C0.995728 3.24194 1.43005 2.56812 1.99902 1.99902C2.56799 1.42993 3.24182 0.99585 4.02051 0.696289C4.8291 0.381836 5.75 0.202148 6.7832 0.157227C7.99609 0.112305 9.56091 0.0898438 11.4775 0.0898438ZM11.4775 1.57227C9.48596 1.57227 7.86133 1.59473 6.60352 1.63965C5.79492 1.66968 5.04626 1.81177 4.35742 2.06641C3.2793 2.51562 2.51562 3.2793 2.06641 4.35742C1.81189 5.04614 1.66956 5.79492 1.63965 6.60352C1.59473 7.86133 1.57227 9.48608 1.57227 11.4775C1.57227 13.469 1.59473 15.0938 1.63965 16.3516C1.66956 17.1602 1.81189 17.9089 2.06641 18.5977C2.51562 19.6758 3.2793 20.4395 4.35742 20.8887C5.04626 21.1433 5.79492 21.2854 6.60352 21.3154C7.86133 21.3604 9.48596 21.3828 11.4775 21.3828C13.4691 21.3828 15.0938 21.3604 16.3516 21.3154C17.1602 21.2854 17.9088 21.1433 18.5977 20.8887C19.6758 20.4395 20.4395 19.6758 20.8887 18.5977C21.1432 17.9089 21.2855 17.1602 21.3154 16.3516C21.3604 15.0938 21.3828 13.469 21.3828 11.4775C21.3828 9.48608 21.3604 7.86133 21.3154 6.60352C21.2855 5.79492 21.1432 5.04614 20.8887 4.35742C20.4395 3.2793 19.6758 2.51562 18.5977 2.06641C17.9088 1.81177 17.1602 1.66968 16.3516 1.63965C15.0938 1.59473 13.4691 1.57227 11.4775 1.57227ZM11.4775 16.0371C12.7354 16.0371 13.8097 15.5916 14.7007 14.7007C15.5917 13.8098 16.0371 12.7354 16.0371 11.4775C16.0371 10.2197 15.5917 9.14526 14.7007 8.25439C13.8097 7.36353 12.7354 6.91797 11.4775 6.91797C10.2197 6.91797 9.14539 7.36353 8.25439 8.25439C7.3634 9.14526 6.91797 10.2197 6.91797 11.4775C6.91797 12.7354 7.3634 13.8098 8.25439 14.7007C9.14539 15.5916 10.2197 16.0371 11.4775 16.0371ZM11.4775 5.6377C13.0947 5.6377 14.4723 6.20679 15.6104 7.34473C16.7484 8.48267 17.3174 9.86035 17.3174 11.4775C17.3174 13.0947 16.7484 14.4724 15.6104 15.6104C14.4723 16.7483 13.0947 17.3174 11.4775 17.3174C9.86035 17.3174 8.48279 16.7483 7.34473 15.6104C6.20667 14.4724 5.6377 13.0947 5.6377 11.4775C5.6377 9.86035 6.20667 8.48267 7.34473 7.34473C8.48279 6.20679 9.86035 5.6377 11.4775 5.6377ZM18.9346 5.41309C18.9346 5.78735 18.7998 6.10571 18.5303 6.36768C18.2607 6.62964 17.9313 6.76074 17.542 6.76074C17.1676 6.76074 16.8495 6.62964 16.5874 6.36768C16.3253 6.10571 16.1943 5.78735 16.1943 5.41309C16.1943 5.02368 16.3253 4.69434 16.5874 4.4248C16.8495 4.15527 17.1676 4.02051 17.542 4.02051C17.9164 4.02051 18.2421 4.15894 18.519 4.43604C18.796 4.71313 18.9346 5.03882 18.9346 5.41309Z" fill="#666666" fill-opacity="1.000000" fill-rule="nonzero"/>
	</g>
</svg>
