<svg width="19.000000" height="20.000000" viewBox="0 0 19 20" fill="none" xmlns="http://www.w3.org/2000/svg" xmlns:xlink="http://www.w3.org/1999/xlink">
	<desc>
			Created with Pixso.
	</desc>
	<defs>
		<clipPath id="clip2403_1625">
			<rect id="phone 1" width="19.148071" height="20.000000" transform="translate(-0.381348 0.000000)" fill="white" fill-opacity="0"/>
		</clipPath>
	</defs>
	<rect id="phone 1" width="19.148071" height="20.000000" transform="translate(-0.381348 0.000000)" fill="#FFFFFF" fill-opacity="0"/>
	<g clip-path="url(#clip2403_1625)">
		<path id="Vector" d="M16.75 9.4L8.61 9.4L8.61 10.6L16.75 10.6L14.74 12.7L15.6 13.6L18.57 10.5C18.66 10.37 18.71 10.21 18.71 10.05C18.71 9.88 18.66 9.72 18.57 9.59L15.6 6.5L14.74 7.4L16.75 9.4Z" fill="#000000" fill-opacity="1.000000" fill-rule="nonzero"/>
		<path id="Vector" d="M7.37 19.4L7.37 13.2C7.36 13.04 7.29 12.89 7.19 12.78C7.08 12.67 6.94 12.61 6.79 12.6L2.58 12.6C2.59 12.91 2.71 13.21 2.92 13.44C3.14 13.66 3.43 13.79 3.73 13.8L6.12 13.8L6.12 18.79L2.58 18.79C2.35 18.81 2.13 18.78 1.91 18.7C1.7 18.62 1.5 18.5 1.33 18.34C1.16 18.18 1.02 17.99 0.93 17.78C0.83 17.56 0.77 17.33 0.76 17.1L0.76 3.1C0.75 2.63 0.92 2.18 1.22 1.85C1.53 1.51 1.95 1.31 2.39 1.29L6.12 1.29L6.12 6.29L3.83 6.29C3.52 6.3 3.23 6.43 3.02 6.65C2.8 6.88 2.68 7.18 2.68 7.5L6.89 7.5C7.04 7.48 7.18 7.42 7.28 7.31C7.39 7.2 7.45 7.05 7.46 6.9L7.46 0.6C7.42 0.44 7.33 0.3 7.21 0.19C7.09 0.09 6.95 0.02 6.79 0L2.58 0C2.2 -0.02 1.83 0.05 1.47 0.18C1.12 0.32 0.8 0.53 0.52 0.8C0.25 1.07 0.02 1.4 -0.13 1.75C-0.29 2.11 -0.37 2.5 -0.39 2.9L-0.39 16.79C-0.41 17.19 -0.36 17.59 -0.24 17.97C-0.11 18.34 0.09 18.69 0.35 18.98C0.61 19.27 0.93 19.5 1.28 19.66C1.63 19.82 2.01 19.9 2.39 19.9L6.79 19.9C6.86 19.91 6.94 19.91 7.01 19.89C7.08 19.87 7.14 19.84 7.2 19.79C7.25 19.74 7.3 19.68 7.33 19.61C7.36 19.54 7.37 19.47 7.37 19.4Z" fill="#000000" fill-opacity="1.000000" fill-rule="nonzero"/>
	</g>
</svg>
