<svg width="30.000000" height="22.000000" viewBox="0 0 30 22" fill="none" xmlns="http://www.w3.org/2000/svg" xmlns:xlink="http://www.w3.org/1999/xlink">
	<desc>
			Created with Pixso.
	</desc>
	<defs>
		<clipPath id="clip2403_684">
			<rect id="icon_vkontakte" width="30.000000" height="22.000000" fill="white" fill-opacity="0"/>
		</clipPath>
	</defs>
	<rect id="icon_vkontakte" width="30.000000" height="22.000000" fill="#FFFFFF" fill-opacity="0"/>
	<g clip-path="url(#clip2403_684)">
		<path id="Vector" d="M0.0914307 5.48999C0.0914307 4.63477 0.643311 4.17383 1.74707 4.10669L6.00049 4.13184C6.28601 4.13184 6.47632 4.25757 6.57141 4.50903C7.00916 5.7666 7.49915 6.85205 8.04163 7.76587C8.58398 8.67944 9.29285 9.73145 10.1683 10.9219C10.2444 11.0728 10.3682 11.1482 10.5394 11.1482C10.6726 11.1482 10.7772 11.0896 10.8534 10.9722L10.9391 10.6956L10.9675 6.34497C10.9675 6.04321 10.8867 5.84204 10.725 5.74146C10.5632 5.64087 10.2634 5.56543 9.82568 5.51514C9.48315 5.46484 9.31189 5.28027 9.31189 4.96167C9.31189 4.89478 9.32141 4.84448 9.34045 4.81079C9.74011 3.72119 10.882 3.17627 12.766 3.17627L14.3646 3.15112C15.0878 3.15112 15.6873 3.3103 16.163 3.62891C16.6388 3.94751 16.8767 4.45044 16.8767 5.1377L16.8767 10.8464C17.0099 10.9302 17.1335 10.9722 17.2478 10.9722C17.5332 10.9722 17.7806 10.8213 17.99 10.5195C20.0834 7.9375 21.2157 6.21069 21.387 5.33911C21.387 5.32227 21.406 5.28027 21.4441 5.21313C21.5773 4.96167 21.7961 4.7439 22.1007 4.55933C22.4052 4.375 22.6716 4.24927 22.8999 4.18213C22.9761 4.14868 23.0618 4.13184 23.1569 4.13184L27.5815 4.13184L27.8671 4.15698C28.2477 4.15698 28.5426 4.31641 28.752 4.63477C28.8281 4.73535 28.8804 4.84448 28.9089 4.96167C28.9375 5.0791 28.9565 5.19653 28.9661 5.31396C28.9756 5.43115 28.9803 5.49829 28.9803 5.51514L28.9803 5.69116C28.847 6.37842 28.5093 7.11182 27.9669 7.8916C27.4246 8.67114 26.7346 9.51343 25.8973 10.4189C25.0599 11.3242 24.5366 11.9194 24.3273 12.2043C24.156 12.4055 24.0703 12.5901 24.0703 12.7576C24.0703 12.8918 24.1465 13.0427 24.2987 13.2102L28.4664 17.8374C28.6948 18.1057 28.8091 18.3992 28.8091 18.7178C28.8091 19.1033 28.6378 19.4219 28.2952 19.6733C27.9526 19.9248 27.5435 20.0674 27.0677 20.1008L26.5824 20.126L22.2434 20.126C22.2244 20.126 22.1863 20.1301 22.1292 20.1387C22.0721 20.147 22.0341 20.1511 22.015 20.1511C21.5963 20.1511 21.2062 19.9919 20.8446 19.6733C20.7114 19.5393 19.8169 18.55 18.1613 16.7058C18.0662 16.5884 17.9329 16.4795 17.7616 16.3789C17.6855 16.6472 17.5856 17.0327 17.4619 17.5356C17.3381 18.0388 17.2478 18.3992 17.1907 18.6172L17.1051 19.0447C16.9148 19.6313 16.5151 19.9834 15.9061 20.1008L15.5065 20.126L12.7089 20.126C11.1294 20.126 9.55457 19.489 7.9845 18.2148C6.41443 16.9407 5.00134 15.2935 3.74536 13.2732C2.48938 11.2529 1.31897 8.90161 0.234131 6.21924C0.139038 6.00122 0.0914307 5.75806 0.0914307 5.48999ZM17.2478 12.0032C16.8481 12.0032 16.4866 11.9067 16.163 11.7141C15.8395 11.5212 15.6777 11.2571 15.6777 10.9219L15.6777 5.1377C15.6777 4.80249 15.5825 4.56348 15.3922 4.42114C15.2019 4.27856 14.8689 4.20728 14.3932 4.20728L12.766 4.25757C11.9476 4.25757 11.3292 4.3833 10.9105 4.63477C11.7478 4.98682 12.1665 5.55688 12.1665 6.34497L12.1665 10.771C12.1284 11.1902 11.9381 11.5378 11.5956 11.8147C11.2531 12.0913 10.8724 12.2295 10.4537 12.2295C9.88281 12.2295 9.44507 11.9863 9.14062 11.5002C7.65625 9.52197 6.55237 7.64429 5.82922 5.86719L5.57227 5.21313L1.77563 5.18799C1.52832 5.18799 1.39026 5.20068 1.36169 5.22583C1.33325 5.25098 1.31897 5.32227 1.31897 5.4397C1.31897 5.59058 1.33801 5.74976 1.37598 5.91748L1.97546 7.32568C3.5741 10.9639 5.31067 13.8306 7.18518 15.9263C9.05969 18.022 10.901 19.0698 12.7089 19.0698L15.5636 19.0698C15.6777 19.0698 15.7634 19.0405 15.8204 18.9817C15.8776 18.9231 15.9252 18.8098 15.9631 18.6423L16.0203 18.3909L16.5626 16.1777C16.715 15.876 16.8481 15.6748 16.9623 15.5742C17.1716 15.3899 17.4191 15.2976 17.7045 15.2976C18.1613 15.2976 18.6276 15.5408 19.1033 16.0269L21.5298 18.7429C21.682 18.9607 21.8438 19.0698 22.015 19.0698L26.7252 19.0698C27.2961 19.0698 27.5815 18.9441 27.5815 18.6926C27.5815 18.6086 27.553 18.5249 27.496 18.4412L23.3567 13.8894C23.0332 13.5371 22.8715 13.1599 22.8715 12.7576C22.8715 12.3552 23.0237 11.9697 23.3281 11.6008C23.5756 11.2656 24.056 10.708 24.7698 9.92847C25.4834 9.14893 26.1067 8.41968 26.6395 7.74072C27.1724 7.06152 27.5244 6.44556 27.6957 5.89233L27.7814 5.56543C27.7623 5.53174 27.7528 5.47729 27.7528 5.40186C27.7528 5.32642 27.7433 5.26343 27.7242 5.21313L23.2426 5.21313C22.957 5.31396 22.7286 5.46484 22.5574 5.66602L22.3861 6.1438C21.9104 7.30054 20.6638 9.08594 18.6466 11.5002C18.2469 11.8354 17.7806 12.0032 17.2478 12.0032Z" fill="#666666" fill-opacity="1.000000" fill-rule="nonzero"/>
	</g>
</svg>
