<svg width="140.000000" height="192.000000" viewBox="0 0 140 192" fill="none" xmlns="http://www.w3.org/2000/svg" xmlns:xlink="http://www.w3.org/1999/xlink">
	<desc>
			Created with Pixso.
	</desc>
	<defs>
		<clipPath id="clip2403_757">
			<rect id="cat-slim" width="140.000000" height="192.000000" fill="white" fill-opacity="0"/>
		</clipPath>
	</defs>
	<rect id="cat-slim" width="140.000000" height="192.000000" fill="#FFFFFF" fill-opacity="0"/>
	<g clip-path="url(#clip2403_757)">
		<path id="Vector" d="M109.68 0L108.92 0C107.63 0.71 106.61 1.81 106 3.14C104.87 5.28 104 7.55 103.42 9.89C103.29 10.6 102.93 11.24 102.39 11.72C101.86 12.2 101.18 12.49 100.46 12.54C98.25 12.92 96.16 13.79 94.35 15.09C92.54 16.38 91.05 18.07 90 20.03C88.55 22.56 87.31 25.21 86.3 27.94C83.46 35.23 81.28 42.75 78.6 50.09C77.33 53.44 77.28 53.44 73.48 53.44C68.94 53.44 69.26 52.75 69.19 57.69C69.19 59.26 69.68 60.05 71.36 59.97C71.87 59.97 72.66 59.71 72.86 60.39C73.06 61.06 72.37 61.36 71.98 61.75C69.6 64.13 66.6 65.81 63.32 66.58C59.52 67.59 55.64 68.38 51.94 69.61C42.44 72.76 33.66 77.15 26.82 84.59C22.82 89.22 19.61 94.46 17.34 100.11C10 117.21 6.44 135.23 3.67 153.42C2.38 161.95 1.46 170.52 0.76 179.15C0.4 183.39 0 187.68 0 192L66.66 192C66.77 191.12 66.61 190.24 66.19 189.46C65.55 187.88 64.51 186.49 63.17 185.43C61.83 184.36 60.23 183.66 58.54 183.39C57.14 183.07 56.98 182.65 57.84 181.56C59.24 179.71 60.31 177.64 61.02 175.43C64.28 165.91 65.54 155.97 67.12 146.13C68.01 138.62 70.34 131.34 74 124.7C76.84 119.8 80.64 115.52 85.18 112.09C86.84 110.84 86.9 110.84 87.18 112.96C87.38 114.36 87.42 115.81 87.52 117.23C88.12 126.59 87.99 135.97 87.16 145.3C86.4 152.54 86.3 159.82 86.86 167.08C87.65 175.49 89.17 183.83 91.4 192L118 192C117.65 189.85 116.65 187.87 115.14 186.3C113.62 184.73 111.66 183.65 109.52 183.21C107.01 182.81 104.45 182.95 102 183.6C100.8 183.88 100.3 183.6 100.2 182.32C99.37 171.84 100.04 161.3 102.2 151C104.86 139.12 106.91 127.11 108.32 115.02C108.84 110.13 110.39 105.41 112.88 101.16C115.26 96.96 117.34 92.61 119.68 88.39C120.6 86.86 121.16 85.14 121.31 83.35C121.46 81.57 121.18 79.78 120.52 78.12C119.98 76.72 119.46 75.29 118.8 73.94C116.8 70.08 114.8 66.26 112.96 62.37C111.98 60.39 112.2 60.15 114.38 60.09C117.64 60.09 117.64 60.09 117.7 56.84C117.7 56.41 117.7 55.97 117.7 55.54C117.7 54.17 117.18 53.42 115.7 53.56C114.7 53.56 113.7 53.56 112.66 53.56C111.28 53.56 110.88 52.98 111.22 51.58C111.89 49.29 113.22 47.25 115.04 45.69C116.86 44.14 119.09 43.14 121.48 42.81C125.91 42.43 130.37 42.72 134.72 43.66C135.22 43.82 135.76 43.77 136.23 43.53C136.7 43.3 137.05 42.89 137.22 42.39C138.02 40.41 138.89 38.43 139.8 36.46C140 36.1 140.09 35.7 140.05 35.3C140.02 34.89 139.86 34.51 139.6 34.2C133.2 26.16 126.26 18.66 116.8 13.85C116.34 13.66 115.94 13.35 115.63 12.96C115.32 12.58 115.12 12.12 115.04 11.63C114.5 8.8 113.65 6.04 112.5 3.4C111.95 1.99 110.96 0.8 109.68 0L109.68 0Z" fill="#000000" fill-opacity="1.000000" fill-rule="nonzero"/>
	</g>
</svg>
