<svg width="67.000000" height="28.000000" viewBox="0 0 67 28" fill="none" xmlns="http://www.w3.org/2000/svg" xmlns:xlink="http://www.w3.org/1999/xlink">
	<desc>
			Created with Pixso.
	</desc>
	<defs>
		<clipPath id="clip135_3258">
			<rect id="cat-pro" width="67.000000" height="28.000000" fill="white" fill-opacity="0"/>
		</clipPath>
	</defs>
	<rect id="cat-pro" width="67.000000" height="28.000000" fill="#FFFFFF" fill-opacity="0"/>
	<g clip-path="url(#clip135_3258)">
		<path id="Vector" d="M61.55 2.9C62.12 1.98 62.89 1.19 63.8 0.6C64.3 0.25 64.6 0.25 64.9 0.9C65.3 1.85 65.65 2.85 65.35 3.9C65.29 4.07 65.28 4.26 65.31 4.44C65.35 4.63 65.43 4.8 65.55 4.95C65.85 5.35 66.1 5.75 66.35 6.1C66.69 6.53 66.91 7.04 66.98 7.58C67.06 8.13 67 8.68 66.8 9.2C66.61 9.69 66.58 10.23 66.69 10.75C66.79 11.24 66.79 11.75 66.69 12.25C66.65 12.62 66.5 12.97 66.26 13.25C66.02 13.54 65.7 13.74 65.35 13.85C64.71 13.97 64.13 14.32 63.75 14.85C63.7 14.92 63.63 14.99 63.55 15.03C63.47 15.07 63.39 15.1 63.3 15.1C62.7 15.2 61.2 13.85 61.2 13.25L61.2 12.95C61.25 11.15 61.15 11 59.5 10.25C59.15 10.12 58.84 9.92 58.6 9.65C58.3 9.25 57.9 9.3 57.45 9.45C57 9.6 56.75 9.9 56.8 10.4C56.95 11.61 57 12.83 56.95 14.05C56.95 14.18 56.98 14.32 57.05 14.45C58.6 16.7 59.2 19.35 59.95 21.9C60.55 23.85 61.65 24.9 63.65 25.05C63.97 25.07 64.28 25.12 64.6 25.2C65.01 25.26 65.39 25.45 65.69 25.73C65.99 26.02 66.2 26.39 66.3 26.8C66.65 27.85 66.44 28.1 65.4 28.1L62.15 28.1C61.72 28.12 61.31 27.97 61 27.7C60.49 27.27 59.91 26.93 59.3 26.7C58.61 26.44 58.02 25.99 57.6 25.4C57.01 24.58 56.34 23.82 55.6 23.15C54.2 21.7 52.7 20.29 51.4 18.79C50.41 17.77 49.83 16.42 49.8 15C49.8 14.55 49.7 14.35 49.2 14.55C49.05 14.64 48.87 14.69 48.7 14.7C47.3 14.7 46.6 15.55 46.1 16.79C45.65 17.85 45.05 18.85 44.5 19.9C44.18 20.55 44.01 21.27 44 22C44 23.2 44.3 23.6 45.4 24C46.1 24.25 46.75 24.5 47.1 25.2C47.5 26 47.4 26.2 46.55 26.25L43.15 26.25C42.95 26.26 42.75 26.22 42.58 26.12C42.41 26.02 42.28 25.87 42.2 25.7L41.3 24.2C41.03 23.8 40.86 23.36 40.8 22.89C40.74 22.42 40.79 21.94 40.95 21.5C41.16 20.63 41.18 19.72 41 18.85C40.87 18.24 40.88 17.6 41.03 17C41.17 16.39 41.45 15.83 41.85 15.35C42.15 15 42.15 14.85 41.65 14.75C39.6 14.31 37.62 13.62 35.75 12.7C35.73 12.7 35.72 12.69 35.71 12.68C35.7 12.67 35.7 12.66 35.7 12.65C34.09 12.05 33.8 12.15 33.34 13.8C32.95 15.2 32.55 16.6 32.25 18.04C31.9 19.65 32.3 21.15 32.8 22.65C33 23.25 33.59 23.2 34.05 23.35C35.05 23.65 35.9 24.05 36.3 25.1C36.65 25.9 36.59 26 35.75 26C34.9 26 34.05 25.95 33.15 26C32.39 26.01 31.64 25.76 31.05 25.3C28.65 23.7 27.95 21.25 27.75 18.6C27.65 16.95 26.75 15.65 25.7 14.4C25.5 14.15 25.3 14.05 25 14.25C23.92 14.84 22.8 15.34 21.65 15.75C19.23 16.6 17.11 18.12 15.55 20.15C14.96 20.88 14.58 21.76 14.45 22.7C14.3 23.6 14.55 24 15.45 24.25C16.35 24.5 16.79 25 16.9 25.95C16.95 26.35 16.79 26.55 16.4 26.55L12.35 26.55C12.21 26.54 12.08 26.49 11.97 26.42C11.86 26.36 11.76 26.26 11.7 26.15C11.07 25.37 10.73 24.39 10.75 23.4C10.72 21.67 10.87 19.94 11.2 18.25C11.26 17.74 11.45 17.25 11.75 16.83C12.04 16.42 12.44 16.08 12.9 15.85C15.85 14.45 17.4 11.8 18.79 9.05C19.1 8.5 18.85 8.4 18.35 8.45C16.95 8.64 15.62 9.19 14.5 10.05C13.02 11.12 11.63 12.31 10.35 13.6C8.97 14.99 7.15 15.86 5.19 16.04C1.54 16.25 -0.16 14.2 -2.29e-5 10.9C0.03 9.77 0.45 8.69 1.19 7.85C1.45 7.51 1.8 7.26 2.21 7.13C2.61 6.99 3.04 6.98 3.44 7.1C4.19 7.3 4.39 7.7 4.09 8.45C3.94 8.75 3.74 9 3.59 9.3C3.38 9.6 3.21 9.94 3.09 10.3C2.54 11.8 3.29 12.85 4.84 13C6.49 13.15 7.84 12.45 9.09 11.45C10.6 10.24 11.95 8.84 13.1 7.3C13.95 6.16 15.04 5.22 16.28 4.52C17.51 3.83 18.88 3.39 20.29 3.25C21.45 3.1 22.45 2.6 23.55 2.3C25.6 1.67 27.74 1.36 29.9 1.4C30.89 1.44 31.88 1.25 32.8 0.85C35.25 -0.15 37.8 -0.15 40.34 0.35C42.35 0.75 44.35 1.25 46.3 1.75C47.46 1.96 48.65 1.93 49.8 1.65C51.99 1.09 54.23 0.75 56.5 0.65C57.98 0.57 59.45 0.86 60.8 1.5C61.8 1.95 61.8 1.95 61.55 2.9Z" fill="#000000" fill-opacity="1.000000" fill-rule="nonzero"/>
	</g>
</svg>
