<svg width="268.000000" height="112.000000" viewBox="0 0 268 112" fill="none" xmlns="http://www.w3.org/2000/svg" xmlns:xlink="http://www.w3.org/1999/xlink">
	<desc>
			Created with Pixso.
	</desc>
	<defs>
		<clipPath id="clip2403_776">
			<rect id="cat-pro" width="268.000000" height="112.000000" fill="white" fill-opacity="0"/>
		</clipPath>
	</defs>
	<rect id="cat-pro" width="268.000000" height="112.000000" fill="#FFFFFF" fill-opacity="0"/>
	<g clip-path="url(#clip2403_776)">
		<path id="Vector" d="M246.2 11.59C248.5 7.92 251.57 4.78 255.2 2.39C257.2 0.99 258.4 0.99 259.6 3.59C261.2 7.39 262.6 11.39 261.4 15.59C261.18 16.31 261.14 17.06 261.28 17.79C261.41 18.53 261.73 19.21 262.2 19.79C263.4 21.39 264.4 22.99 265.4 24.39C266.76 26.12 267.64 28.18 267.96 30.35C268.27 32.53 268.01 34.75 267.2 36.79C266.46 38.78 266.32 40.93 266.79 42.99C267.2 44.97 267.2 47.01 266.79 48.99C266.63 50.48 266.03 51.88 265.07 53.02C264.11 54.16 262.83 54.99 261.4 55.39C258.84 55.88 256.55 57.31 255 59.39C254.81 59.7 254.54 59.96 254.23 60.13C253.91 60.31 253.56 60.4 253.2 60.39C250.8 60.79 244.8 55.39 244.8 52.99L244.8 51.79C245 44.59 244.6 43.99 238 40.99C236.61 40.51 235.38 39.68 234.4 38.59C233.2 36.99 231.6 37.2 229.8 37.79C228 38.39 227 39.59 227.2 41.59C227.8 46.44 228 51.32 227.8 56.2C227.81 56.75 227.95 57.3 228.2 57.79C234.4 66.79 236.8 77.39 239.8 87.59C242.2 95.39 246.6 99.59 254.6 100.2C255.88 100.3 257.15 100.5 258.4 100.8C260.04 101.06 261.57 101.81 262.78 102.95C263.99 104.09 264.83 105.57 265.2 107.2C266.6 111.4 265.79 112.4 261.6 112.4L248.6 112.4C246.91 112.48 245.26 111.91 244 110.8C241.97 109.09 239.67 107.73 237.2 106.8C234.46 105.78 232.09 103.97 230.4 101.6C228.05 98.32 225.37 95.31 222.4 92.59C216.8 86.79 210.8 81.19 205.6 75.19C201.64 71.11 199.35 65.68 199.2 59.99C199.2 58.2 198.8 57.39 196.8 58.2C196.2 58.57 195.5 58.78 194.8 58.79C189.2 58.79 186.4 62.19 184.4 67.19C182.6 71.39 180.2 75.39 178 79.59C176.75 82.22 176.07 85.09 176 87.99C176 92.79 177.2 94.39 181.6 95.99C184.4 96.99 187 97.99 188.4 100.8C190 104 189.6 104.8 186.2 105L172.6 105C171.81 105.07 171.02 104.9 170.34 104.51C169.66 104.11 169.12 103.51 168.8 102.8L165.2 96.79C164.13 95.23 163.45 93.44 163.21 91.56C162.97 89.69 163.17 87.78 163.8 85.99C164.66 82.52 164.73 78.9 164 75.39C163.49 72.96 163.53 70.43 164.12 68.01C164.71 65.59 165.83 63.33 167.4 61.39C168.6 59.99 168.6 59.39 166.6 58.99C158.42 57.26 150.49 54.5 143 50.79C142.94 50.79 142.89 50.77 142.85 50.74C142.82 50.7 142.8 50.65 142.8 50.59C136.39 48.19 135.2 48.59 133.39 55.2C131.8 60.79 130.2 66.39 129 72.19C127.6 78.59 129.2 84.59 131.2 90.59C132 92.99 134.39 92.79 136.2 93.39C140.2 94.59 143.6 96.2 145.2 100.4C146.6 103.6 146.39 104 143 104C139.6 104 136.2 103.8 132.6 104C129.56 104.05 126.59 103.06 124.2 101.2C114.6 94.79 111.8 84.99 111 74.39C110.6 67.79 107 62.59 102.8 57.59C102 56.59 101.2 56.2 100 56.99C95.7 59.36 91.22 61.37 86.6 62.99C76.94 66.4 68.47 72.51 62.2 80.59C59.85 83.54 58.33 87.07 57.8 90.79C57.2 94.39 58.2 95.99 61.8 96.99C65.4 97.99 67.2 99.99 67.6 103.8C67.8 105.4 67.2 106.2 65.6 106.2L49.4 106.2C48.86 106.16 48.35 105.99 47.9 105.71C47.45 105.44 47.07 105.05 46.8 104.6C44.28 101.49 42.94 97.59 43 93.59C42.89 86.68 43.49 79.78 44.8 72.99C45.06 70.96 45.82 69.03 47.01 67.35C48.19 65.68 49.77 64.32 51.6 63.39C63.4 57.79 69.6 47.2 75.2 36.2C76.4 33.99 75.4 33.59 73.4 33.79C67.8 34.57 62.49 36.78 58 40.2C52.1 44.49 46.55 49.24 41.4 54.39C35.89 59.98 28.6 63.45 20.8 64.19C6.2 64.99 -0.6 56.79 6.1e-5 43.59C0.13 39.09 1.83 34.78 4.8 31.39C5.83 30.06 7.23 29.06 8.84 28.52C10.44 27.99 12.17 27.94 13.8 28.39C16.8 29.2 17.6 30.79 16.4 33.79C15.8 34.99 15 35.99 14.4 37.2C13.53 38.42 12.86 39.77 12.4 41.2C10.2 47.2 13.2 51.39 19.4 51.99C26 52.59 31.4 49.79 36.4 45.79C42.42 40.97 47.8 35.39 52.4 29.2C55.83 24.67 60.16 20.9 65.12 18.11C70.07 15.32 75.54 13.58 81.2 12.99C85.8 12.39 89.8 10.39 94.2 9.19C102.42 6.69 110.99 5.47 119.6 5.59C123.58 5.76 127.55 5.01 131.2 3.39C141 -0.61 151.2 -0.61 161.39 1.39C169.4 2.99 177.4 4.99 185.2 6.99C189.84 7.86 194.61 7.72 199.2 6.59C207.97 4.37 216.95 3.03 226 2.59C231.92 2.31 237.83 3.47 243.2 5.99C247.2 7.79 247.2 7.79 246.2 11.59Z" fill="#000000" fill-opacity="1.000000" fill-rule="nonzero"/>
	</g>
</svg>
