<svg width="128.000000" height="24.000000" viewBox="0 0 128 24" fill="none" xmlns="http://www.w3.org/2000/svg" xmlns:xlink="http://www.w3.org/1999/xlink">
	<desc>
			Created with Pixso.
	</desc>
	<defs>
		<clipPath id="clip2403_695">
			<rect id="footer-logo 2" width="128.000000" height="24.000000" fill="white" fill-opacity="0"/>
		</clipPath>
	</defs>
	<rect id="footer-logo 2" width="128.000000" height="24.000000" fill="#FFFFFF" fill-opacity="0"/>
	<g clip-path="url(#clip2403_695)">
		<path id="Vector" d="M1.60254 22.0513C0.468384 20.3682 -0.0947266 18.3503 0 16.3076L0 7.79492C-0.137329 5.73022 0.390381 3.67651 1.50232 1.94873C2.60413 0.615479 4.30676 0 6.81067 0C9.31458 0 10.9171 0.615479 11.9186 1.74365C13.006 3.17261 13.5409 4.96191 13.421 6.76929L13.421 8.82056L8.51331 8.82056L8.51331 6.46143C8.55298 5.76392 8.45056 5.06543 8.21289 4.41016C8.08569 4.14575 7.88428 3.92651 7.6344 3.78027C7.38452 3.63403 7.09766 3.56763 6.81067 3.58984C6.1095 3.58984 5.60876 3.79492 5.40845 4.30762C5.18188 5.03638 5.0802 5.7998 5.10803 6.56421L5.10803 17.5386C5.05505 18.28 5.19324 19.0227 5.50867 19.6924C5.70886 20.2051 6.20972 20.4102 6.91077 20.4102C7.61194 20.4102 8.01257 20.2051 8.21289 19.6924C8.44055 18.9993 8.54236 18.2693 8.51331 17.5386L8.51331 15.0769L13.421 15.0769L13.421 17.1282C13.5228 18.9651 12.9911 20.7803 11.9186 22.2563C10.9171 23.4873 9.21436 24.1025 6.81067 24.1025C4.40686 24 2.60413 23.3845 1.60254 22.0513Z" fill="#111111" fill-opacity="1.000000" fill-rule="nonzero"/>
		<path id="Vector" d="M19.3302 0.307617L25.0391 0.307617L29.2456 23.6921L24.6384 23.6921L23.8372 18.769L20.5321 18.769L19.7308 23.6921L15.0234 23.6921L19.3302 0.307617ZM23.4365 15.6921L22.2347 6.56396L21.0328 15.6921L23.4365 15.6921Z" fill="#111111" fill-opacity="1.000000" fill-rule="nonzero"/>
		<path id="Vector" d="M32.7511 4.20508L29.3458 4.20508L29.3458 0.307617L41.2644 0.307617L41.2644 4.10254L37.8591 4.10254L37.8591 23.6921L32.7511 23.6921L32.7511 4.20508Z" fill="#111111" fill-opacity="1.000000" fill-rule="nonzero"/>
		<path id="Vector" d="M50.3787 0.307617L59.1925 0.307617L59.1925 2.76904L53.4835 2.76904L53.4835 10.4614L58.0908 10.4614L58.0908 12.8206L53.4835 12.8206L53.4835 21.4358L59.1925 21.4358L59.1925 23.7947L50.2786 23.7947L50.2786 0.307617L50.3787 0.307617Z" fill="#111111" fill-opacity="1.000000" fill-rule="nonzero"/>
		<path id="Vector" d="M61.7965 0.307617L64 0.307617L70.5101 15.7947L70.5101 0.307617L73.1143 0.307617L73.1143 23.6921L71.1111 23.6921L64.5007 7.69214L64.5007 23.6921L61.7965 23.6921L61.7965 0.307617Z" fill="#111111" fill-opacity="1.000000" fill-rule="nonzero"/>
		<path id="Vector" d="M76.1189 0.307617L84.9326 0.307617L84.9326 2.76904L79.2238 2.76904L79.2238 10.4614L83.8309 10.4614L83.8309 12.8206L79.2238 12.8206L79.2238 21.4358L84.9326 21.4358L84.9326 23.7947L76.1189 23.7947L76.1189 0.307617Z" fill="#111111" fill-opacity="1.000000" fill-rule="nonzero"/>
		<path id="Vector" d="M87.5367 0.307617L92.144 0.307617C93.9564 0.179443 95.7576 0.685791 97.252 1.74341C98.3536 2.6665 98.8545 4.30762 98.8545 6.46143C98.8545 9.43579 97.9531 11.282 96.05 11.8975L99.2551 23.5896L96.1503 23.5896L93.1455 12.6152L90.6416 12.6152L90.6416 23.5896L87.4366 23.5896L87.4366 0.307617L87.5367 0.307617ZM91.9437 10.3589C92.9762 10.446 94.0054 10.1553 94.8483 9.53833C95.4491 9.02563 95.7496 8 95.7496 6.46143C95.7773 5.69727 95.6758 4.93384 95.4492 4.20508C95.2238 3.68213 94.8365 3.24976 94.3474 2.97437C93.6576 2.65234 92.9004 2.51147 92.144 2.56396L90.7418 2.56396L90.7418 10.2563L91.9437 10.2563L91.9437 10.3589Z" fill="#111111" fill-opacity="1.000000" fill-rule="nonzero"/>
		<path id="Vector" d="M102.861 21.9487C101.82 20.1553 101.331 18.082 101.458 16L101.458 8.20508C101.434 6.71875 101.602 5.2356 101.959 3.79492C102.294 2.71802 102.962 1.78223 103.862 1.12817C104.98 0.450195 106.271 0.128906 107.568 0.205078C109.671 0.205078 111.174 0.717773 112.075 1.84619C113.112 3.33594 113.608 5.14966 113.477 6.97437L113.477 7.79492L110.473 7.79492L110.473 7.0769C110.477 6.21777 110.41 5.36011 110.272 4.5127C110.188 3.97729 109.9 3.4978 109.471 3.17944C108.908 2.80103 108.24 2.62109 107.568 2.6665C106.85 2.61938 106.139 2.83789 105.565 3.28198C105.329 3.48535 105.137 3.7356 104.999 4.01782C104.861 4.30005 104.781 4.60815 104.764 4.9231C104.632 5.83984 104.565 6.76538 104.563 7.69214L104.563 16.4102C104.49 17.7383 104.694 19.0674 105.164 20.3076C105.565 21.1282 106.366 21.4358 107.568 21.4358C108.043 21.4963 108.524 21.4119 108.952 21.1929C109.38 20.9739 109.734 20.6301 109.972 20.2051C110.501 18.9082 110.74 17.5063 110.673 16.1025L110.673 14.4614L107.768 14.4614L107.768 12.1025L113.577 12.1025L113.577 23.6921L111.574 23.6921L111.274 21.0256C111.011 21.9192 110.464 22.6975 109.72 23.2363C108.976 23.7754 108.078 24.0442 107.167 24C106.34 24.0498 105.513 23.8884 104.761 23.5305C104.01 23.1724 103.357 22.6289 102.861 21.9487Z" fill="#111111" fill-opacity="1.000000" fill-rule="nonzero"/>
		<path id="Vector" d="M119.988 15.4871L115.08 0.410156L118.084 0.410156L121.59 11.6921L124.995 0.410156L128 0.410156L123.092 15.4871L123.092 23.6921L120.088 23.6921L120.088 15.4871L119.988 15.4871Z" fill="#111111" fill-opacity="1.000000" fill-rule="nonzero"/>
	</g>
</svg>
